<?xml version="1.0" encoding="UTF-8"?>
<!DOCTYPE svg PUBLIC "-//W3C//DTD SVG 1.1//EN" "http://www.w3.org/Graphics/SVG/1.1/DTD/svg11.dtd">
<svg xmlns="http://www.w3.org/2000/svg" version="1.1" width="512px" height="512px" style="shape-rendering:geometricPrecision; text-rendering:geometricPrecision; image-rendering:optimizeQuality; fill-rule:evenodd; clip-rule:evenodd" xmlns:xlink="http://www.w3.org/1999/xlink">
<g><path style="opacity:1" fill="#fcfcfc" d="M 239.5,-0.5 C 250.167,-0.5 260.833,-0.5 271.5,-0.5C 289.225,1.96409 305.892,7.63076 321.5,16.5C 321.973,17.9063 322.973,18.573 324.5,18.5C 325.492,18.3284 326.158,18.6618 326.5,19.5C 326.973,20.9063 327.973,21.573 329.5,21.5C 329.973,22.9063 330.973,23.573 332.5,23.5C 332.973,24.9063 333.973,25.573 335.5,25.5C 336.167,25.5 336.5,25.8333 336.5,26.5C 336.973,27.9063 337.973,28.573 339.5,28.5C 340.5,28.8333 341.167,29.5 341.5,30.5C 342.262,32.2624 343.596,33.2624 345.5,33.5C 349.5,36.8333 353.167,40.5 356.5,44.5C 356.738,46.4044 357.738,47.7377 359.5,48.5C 360.5,48.8333 361.167,49.5 361.5,50.5C 361.427,52.0269 362.094,53.0269 363.5,53.5C 364.167,53.5 364.5,53.8333 364.5,54.5C 364.427,56.0269 365.094,57.0269 366.5,57.5C 366.427,59.0269 367.094,60.0269 368.5,60.5C 368.427,62.0269 369.094,63.0269 370.5,63.5C 371.338,63.8417 371.672,64.5084 371.5,65.5C 371.427,67.0269 372.094,68.0269 373.5,68.5C 391.352,101.013 395.519,135.347 386,171.5C 383.074,181.803 378.907,191.469 373.5,200.5C 372.094,200.973 371.427,201.973 371.5,203.5C 371.672,204.492 371.338,205.158 370.5,205.5C 369.094,205.973 368.427,206.973 368.5,208.5C 367.094,208.973 366.427,209.973 366.5,211.5C 365.094,211.973 364.427,212.973 364.5,214.5C 364.5,215.167 364.167,215.5 363.5,215.5C 362.094,215.973 361.427,216.973 361.5,218.5C 361.167,219.5 360.5,220.167 359.5,220.5C 357.738,221.262 356.738,222.596 356.5,224.5C 353.167,228.5 349.5,232.167 345.5,235.5C 343.596,235.738 342.262,236.738 341.5,238.5C 341.167,239.5 340.5,240.167 339.5,240.5C 337.973,240.427 336.973,241.094 336.5,242.5C 336.5,243.167 336.167,243.5 335.5,243.5C 333.973,243.427 332.973,244.094 332.5,245.5C 330.973,245.427 329.973,246.094 329.5,247.5C 327.973,247.427 326.973,248.094 326.5,249.5C 326.158,250.338 325.492,250.672 324.5,250.5C 322.973,250.427 321.973,251.094 321.5,252.5C 288.987,270.352 254.653,274.519 218.5,265C 208.197,262.074 198.531,257.907 189.5,252.5C 189.027,251.094 188.027,250.427 186.5,250.5C 185.508,250.672 184.842,250.338 184.5,249.5C 184.027,248.094 183.027,247.427 181.5,247.5C 181.027,246.094 180.027,245.427 178.5,245.5C 178.027,244.094 177.027,243.427 175.5,243.5C 174.833,243.5 174.5,243.167 174.5,242.5C 174.027,241.094 173.027,240.427 171.5,240.5C 170.5,240.167 169.833,239.5 169.5,238.5C 168.415,236.413 166.749,235.08 164.5,234.5C 160.833,231.5 157.5,228.167 154.5,224.5C 154.262,222.596 153.262,221.262 151.5,220.5C 150.5,220.167 149.833,219.5 149.5,218.5C 149.573,216.973 148.906,215.973 147.5,215.5C 146.833,215.5 146.5,215.167 146.5,214.5C 146.573,212.973 145.906,211.973 144.5,211.5C 144.573,209.973 143.906,208.973 142.5,208.5C 142.573,206.973 141.906,205.973 140.5,205.5C 139.662,205.158 139.328,204.492 139.5,203.5C 139.573,201.973 138.906,200.973 137.5,200.5C 119.648,167.987 115.481,133.653 125,97.5C 127.926,87.1973 132.093,77.5306 137.5,68.5C 138.906,68.0269 139.573,67.0269 139.5,65.5C 139.328,64.5084 139.662,63.8417 140.5,63.5C 141.906,63.0269 142.573,62.0269 142.5,60.5C 143.906,60.0269 144.573,59.0269 144.5,57.5C 145.906,57.0269 146.573,56.0269 146.5,54.5C 146.5,53.8333 146.833,53.5 147.5,53.5C 148.906,53.0269 149.573,52.0269 149.5,50.5C 149.833,49.5 150.5,48.8333 151.5,48.5C 153.262,47.7377 154.262,46.4044 154.5,44.5C 157.833,40.5 161.5,36.8333 165.5,33.5C 167.404,33.2624 168.738,32.2624 169.5,30.5C 169.833,29.5 170.5,28.8333 171.5,28.5C 173.027,28.573 174.027,27.9063 174.5,26.5C 174.5,25.8333 174.833,25.5 175.5,25.5C 177.027,25.573 178.027,24.9063 178.5,23.5C 180.027,23.573 181.027,22.9063 181.5,21.5C 183.027,21.573 184.027,20.9063 184.5,19.5C 184.842,18.6618 185.508,18.3284 186.5,18.5C 188.027,18.573 189.027,17.9063 189.5,16.5C 205.108,7.63076 221.775,1.96409 239.5,-0.5 Z"/></g>
<g><path style="opacity:0.016" fill="#696969" d="M 321.5,16.5 C 323.027,16.427 324.027,17.0937 324.5,18.5C 322.973,18.573 321.973,17.9063 321.5,16.5 Z"/></g>
<g><path style="opacity:0.855" fill="#525252" d="M 189.5,16.5 C 189.027,17.9063 188.027,18.573 186.5,18.5C 186.973,17.0937 187.973,16.427 189.5,16.5 Z"/></g>
<g><path style="opacity:0.48" fill="#2d2d2d" d="M 184.5,19.5 C 184.027,20.9063 183.027,21.573 181.5,21.5C 181.973,20.0937 182.973,19.427 184.5,19.5 Z"/></g>
<g><path style="opacity:0.502" fill="#3a3a3a" d="M 326.5,19.5 C 328.027,19.427 329.027,20.0937 329.5,21.5C 327.973,21.573 326.973,20.9063 326.5,19.5 Z"/></g>
<g><path style="opacity:0.882" fill="#535353" d="M 181.5,21.5 C 181.027,22.9063 180.027,23.573 178.5,23.5C 178.973,22.0937 179.973,21.427 181.5,21.5 Z"/></g>
<g><path style="opacity:0.18" fill="#3d3d3d" d="M 329.5,21.5 C 331.027,21.427 332.027,22.0937 332.5,23.5C 330.973,23.573 329.973,22.9063 329.5,21.5 Z"/></g>
<g><path style="opacity:0.4" fill="#2f2f2f" d="M 178.5,23.5 C 178.027,24.9063 177.027,25.573 175.5,25.5C 175.973,24.0937 176.973,23.427 178.5,23.5 Z"/></g>
<g><path style="opacity:0.102" fill="#272727" d="M 332.5,23.5 C 334.027,23.427 335.027,24.0937 335.5,25.5C 333.973,25.573 332.973,24.9063 332.5,23.5 Z"/></g>
<g><path style="opacity:0.406" fill="#363636" d="M 174.5,26.5 C 174.027,27.9063 173.027,28.573 171.5,28.5C 171.973,27.0937 172.973,26.427 174.5,26.5 Z"/></g>
<g><path style="opacity:0.422" fill="#444444" d="M 336.5,26.5 C 338.027,26.427 339.027,27.0937 339.5,28.5C 337.973,28.573 336.973,27.9063 336.5,26.5 Z"/></g>
<g><path style="opacity:0.502" fill="#2a2a2a" d="M 341.5,30.5 C 343.404,30.7376 344.738,31.7376 345.5,33.5C 343.596,33.2624 342.262,32.2624 341.5,30.5 Z"/></g>
<g><path style="opacity:0.769" fill="#393939" d="M 169.5,30.5 C 168.738,32.2624 167.404,33.2624 165.5,33.5C 166.262,31.7376 167.596,30.7376 169.5,30.5 Z"/></g>
<g><path style="opacity:0.501" fill="#2c2c2c" d="M 356.5,44.5 C 358.262,45.2623 359.262,46.5956 359.5,48.5C 357.738,47.7377 356.738,46.4044 356.5,44.5 Z"/></g>
<g><path style="opacity:0.678" fill="#353535" d="M 154.5,44.5 C 154.262,46.4044 153.262,47.7377 151.5,48.5C 151.738,46.5956 152.738,45.2623 154.5,44.5 Z"/></g>
<g><path style="opacity:0.725" fill="#3c3c3c" d="M 149.5,50.5 C 149.573,52.0269 148.906,53.0269 147.5,53.5C 147.427,51.9731 148.094,50.9731 149.5,50.5 Z"/></g>
<g><path style="opacity:0.737" fill="#3c3c3c" d="M 361.5,50.5 C 362.906,50.9731 363.573,51.9731 363.5,53.5C 362.094,53.0269 361.427,52.0269 361.5,50.5 Z"/></g>
<g><path style="opacity:0.714" fill="#292929" d="M 146.5,54.5 C 146.573,56.0269 145.906,57.0269 144.5,57.5C 144.427,55.9731 145.094,54.9731 146.5,54.5 Z"/></g>
<g><path style="opacity:0.431" fill="#292929" d="M 364.5,54.5 C 365.906,54.9731 366.573,55.9731 366.5,57.5C 365.094,57.0269 364.427,56.0269 364.5,54.5 Z"/></g>
<g><path style="opacity:0.518" fill="#3e3e3e" d="M 144.5,57.5 C 144.573,59.0269 143.906,60.0269 142.5,60.5C 142.427,58.9731 143.094,57.9731 144.5,57.5 Z"/></g>
<g><path style="opacity:0.502" fill="#3a3a3a" d="M 366.5,57.5 C 367.906,57.9731 368.573,58.9731 368.5,60.5C 367.094,60.0269 366.427,59.0269 366.5,57.5 Z"/></g>
<g><path style="opacity:0.476" fill="#3a3a3a" d="M 368.5,60.5 C 369.906,60.9731 370.573,61.9731 370.5,63.5C 369.094,63.0269 368.427,62.0269 368.5,60.5 Z"/></g>
<g><path style="opacity:0.447" fill="#292929" d="M 142.5,60.5 C 142.573,62.0269 141.906,63.0269 140.5,63.5C 140.427,61.9731 141.094,60.9731 142.5,60.5 Z"/></g>
<g><path style="opacity:0.871" fill="#585858" d="M 139.5,65.5 C 139.573,67.0269 138.906,68.0269 137.5,68.5C 137.427,66.9731 138.094,65.9731 139.5,65.5 Z"/></g>
<g><path style="opacity:0.898" fill="#636363" d="M 371.5,65.5 C 372.906,65.9731 373.573,66.9731 373.5,68.5C 372.094,68.0269 371.427,67.0269 371.5,65.5 Z"/></g>
<g><path style="opacity:0.012" fill="#484848" d="M 137.5,200.5 C 138.906,200.973 139.573,201.973 139.5,203.5C 138.094,203.027 137.427,202.027 137.5,200.5 Z"/></g>
<g><path style="opacity:0.247" fill="#3d3d3d" d="M 373.5,200.5 C 373.573,202.027 372.906,203.027 371.5,203.5C 371.427,201.973 372.094,200.973 373.5,200.5 Z"/></g>
<g><path style="opacity:0.473" fill="#282828" d="M 140.5,205.5 C 141.906,205.973 142.573,206.973 142.5,208.5C 141.094,208.027 140.427,207.027 140.5,205.5 Z"/></g>
<g><path style="opacity:0.008" fill="#202020" d="M 370.5,205.5 C 370.573,207.027 369.906,208.027 368.5,208.5C 368.427,206.973 369.094,205.973 370.5,205.5 Z"/></g>
<g><path style="opacity:0.433" fill="#464646" d="M 368.5,208.5 C 368.573,210.027 367.906,211.027 366.5,211.5C 366.427,209.973 367.094,208.973 368.5,208.5 Z"/></g>
<g><path style="opacity:0.169" fill="#3c3c3c" d="M 142.5,208.5 C 143.906,208.973 144.573,209.973 144.5,211.5C 143.094,211.027 142.427,210.027 142.5,208.5 Z"/></g>
<g><path style="opacity:0.004" fill="#202020" d="M 366.5,211.5 C 366.573,213.027 365.906,214.027 364.5,214.5C 364.427,212.973 365.094,211.973 366.5,211.5 Z"/></g>
<g><path style="opacity:0.086" fill="#272727" d="M 144.5,211.5 C 145.906,211.973 146.573,212.973 146.5,214.5C 145.094,214.027 144.427,213.027 144.5,211.5 Z"/></g>
<g><path style="opacity:0.012" fill="#414141" d="M 363.5,215.5 C 363.573,217.027 362.906,218.027 361.5,218.5C 361.427,216.973 362.094,215.973 363.5,215.5 Z"/></g>
<g><path style="opacity:0.071" fill="#313131" d="M 147.5,215.5 C 148.906,215.973 149.573,216.973 149.5,218.5C 148.094,218.027 147.427,217.027 147.5,215.5 Z"/></g>
<g><path style="opacity:0.498" fill="#2a2a2a" d="M 359.5,220.5 C 359.262,222.404 358.262,223.738 356.5,224.5C 356.738,222.596 357.738,221.262 359.5,220.5 Z"/></g>
<g><path style="opacity:0.425" fill="#323232" d="M 151.5,220.5 C 153.262,221.262 154.262,222.596 154.5,224.5C 152.738,223.738 151.738,222.404 151.5,220.5 Z"/></g>
<g><path style="opacity:0.651" fill="#353535" d="M 164.5,234.5 C 166.749,235.08 168.415,236.413 169.5,238.5C 167.251,237.92 165.585,236.587 164.5,234.5 Z"/></g>
<g><path style="opacity:0.035" fill="#353535" d="M 345.5,235.5 C 344.738,237.262 343.404,238.262 341.5,238.5C 342.262,236.738 343.596,235.738 345.5,235.5 Z"/></g>
<g><path style="opacity:0.467" fill="#2a2a2a" d="M 171.5,240.5 C 173.027,240.427 174.027,241.094 174.5,242.5C 172.973,242.573 171.973,241.906 171.5,240.5 Z"/></g>
<g><path style="opacity:0.012" fill="#414141" d="M 339.5,240.5 C 339.027,241.906 338.027,242.573 336.5,242.5C 336.973,241.094 337.973,240.427 339.5,240.5 Z"/></g>
<g><path style="opacity:0.702" fill="#282828" d="M 175.5,243.5 C 177.027,243.427 178.027,244.094 178.5,245.5C 176.973,245.573 175.973,244.906 175.5,243.5 Z"/></g>
<g><path style="opacity:0.004" fill="#1f1f1f" d="M 335.5,243.5 C 335.027,244.906 334.027,245.573 332.5,245.5C 332.973,244.094 333.973,243.427 335.5,243.5 Z"/></g>
<g><path style="opacity:0.243" fill="#3c3c3c" d="M 178.5,245.5 C 180.027,245.427 181.027,246.094 181.5,247.5C 179.973,247.573 178.973,246.906 178.5,245.5 Z"/></g>
<g><path style="opacity:0.027" fill="#303030" d="M 332.5,245.5 C 332.027,246.906 331.027,247.573 329.5,247.5C 329.973,246.094 330.973,245.427 332.5,245.5 Z"/></g>
<g><path style="opacity:0.4" fill="#282828" d="M 181.5,247.5 C 183.027,247.427 184.027,248.094 184.5,249.5C 182.973,249.573 181.973,248.906 181.5,247.5 Z"/></g>
<g><path style="opacity:0.012" fill="#424242" d="M 329.5,247.5 C 329.027,248.906 328.027,249.573 326.5,249.5C 326.973,248.094 327.973,247.427 329.5,247.5 Z"/></g>
<g><path style="opacity:0.369" fill="#2d2d2d" d="M 186.5,250.5 C 188.027,250.427 189.027,251.094 189.5,252.5C 187.973,252.573 186.973,251.906 186.5,250.5 Z"/></g>
<g><path style="opacity:0.012" fill="#535353" d="M 324.5,250.5 C 324.027,251.906 323.027,252.573 321.5,252.5C 321.973,251.094 322.973,250.427 324.5,250.5 Z"/></g>
<g><path style="opacity:1" fill="#fdfdfd" d="M 375.5,321.5 C 375.973,322.906 376.973,323.573 378.5,323.5C 380.153,323.66 381.486,324.326 382.5,325.5C 382.973,326.906 383.973,327.573 385.5,327.5C 387.434,328.11 389.101,329.11 390.5,330.5C 390.973,331.906 391.973,332.573 393.5,332.5C 393.973,333.906 394.973,334.573 396.5,334.5C 398.23,335.026 399.564,336.026 400.5,337.5C 400.973,338.906 401.973,339.573 403.5,339.5C 404.5,339.833 405.167,340.5 405.5,341.5C 405.973,342.906 406.973,343.573 408.5,343.5C 409.833,344.167 410.833,345.167 411.5,346.5C 412.585,348.587 414.251,349.92 416.5,350.5C 420.833,354.167 424.833,358.167 428.5,362.5C 429.08,364.749 430.413,366.415 432.5,367.5C 433.833,368.167 434.833,369.167 435.5,370.5C 435.427,372.027 436.094,373.027 437.5,373.5C 438.167,373.5 438.5,373.833 438.5,374.5C 438.427,376.027 439.094,377.027 440.5,377.5C 442.543,378.579 443.876,380.246 444.5,382.5C 444.427,384.027 445.094,385.027 446.5,385.5C 446.427,387.027 447.094,388.027 448.5,388.5C 448.427,390.027 449.094,391.027 450.5,391.5C 452.588,393.336 453.921,395.669 454.5,398.5C 454.427,400.027 455.094,401.027 456.5,401.5C 474.064,432.803 481.897,466.47 480,502.5C 479.623,503.942 478.79,504.942 477.5,505.5C 476.167,506.167 475.167,507.167 474.5,508.5C 473.694,509.728 472.694,510.728 471.5,511.5C 327.5,511.5 183.5,511.5 39.5,511.5C 38.3065,510.728 37.3065,509.728 36.5,508.5C 35.8333,507.167 34.8333,506.167 33.5,505.5C 32.2101,504.942 31.3768,503.942 31,502.5C 28.935,466.433 36.7684,432.766 54.5,401.5C 55.9063,401.027 56.573,400.027 56.5,398.5C 57.0787,395.669 58.412,393.336 60.5,391.5C 61.9063,391.027 62.573,390.027 62.5,388.5C 63.9063,388.027 64.573,387.027 64.5,385.5C 65.9063,385.027 66.573,384.027 66.5,382.5C 67.1237,380.246 68.457,378.579 70.5,377.5C 71.9063,377.027 72.573,376.027 72.5,374.5C 72.5,373.833 72.8333,373.5 73.5,373.5C 75.2624,372.738 76.2624,371.404 76.5,369.5C 76.8333,368.5 77.5,367.833 78.5,367.5C 80.914,366.089 82.5806,364.089 83.5,361.5C 86.8333,357.5 90.5,353.833 94.5,350.5C 96.7488,349.92 98.4154,348.587 99.5,346.5C 100.167,345.167 101.167,344.167 102.5,343.5C 104.027,343.573 105.027,342.906 105.5,341.5C 105.5,340.833 105.833,340.5 106.5,340.5C 108.404,340.262 109.738,339.262 110.5,337.5C 112.027,337.573 113.027,336.906 113.5,335.5C 113.5,334.833 113.833,334.5 114.5,334.5C 116.027,334.573 117.027,333.906 117.5,332.5C 119.027,332.573 120.027,331.906 120.5,330.5C 121.899,329.11 123.566,328.11 125.5,327.5C 127.027,327.573 128.027,326.906 128.5,325.5C 129.514,324.326 130.847,323.66 132.5,323.5C 134.027,323.573 135.027,322.906 135.5,321.5C 157.286,309.714 180.619,302.547 205.5,300C 238.833,299.333 272.167,299.333 305.5,300C 330.381,302.547 353.714,309.714 375.5,321.5 Z"/></g>
<g><path style="opacity:0.016" fill="#656565" d="M 375.5,321.5 C 377.027,321.427 378.027,322.094 378.5,323.5C 376.973,323.573 375.973,322.906 375.5,321.5 Z"/></g>
<g><path style="opacity:0.945" fill="#656565" d="M 135.5,321.5 C 135.027,322.906 134.027,323.573 132.5,323.5C 132.973,322.094 133.973,321.427 135.5,321.5 Z"/></g>
<g><path style="opacity:0.016" fill="#676767" d="M 382.5,325.5 C 384.027,325.427 385.027,326.094 385.5,327.5C 383.973,327.573 382.973,326.906 382.5,325.5 Z"/></g>
<g><path style="opacity:0.855" fill="#535353" d="M 128.5,325.5 C 128.027,326.906 127.027,327.573 125.5,327.5C 125.973,326.094 126.973,325.427 128.5,325.5 Z"/></g>
<g><path style="opacity:0.475" fill="#2e2e2e" d="M 120.5,330.5 C 120.027,331.906 119.027,332.573 117.5,332.5C 117.973,331.094 118.973,330.427 120.5,330.5 Z"/></g>
<g><path style="opacity:0.471" fill="#3c3c3c" d="M 390.5,330.5 C 392.027,330.427 393.027,331.094 393.5,332.5C 391.973,332.573 390.973,331.906 390.5,330.5 Z"/></g>
<g><path style="opacity:0.749" fill="#2c2c2c" d="M 117.5,332.5 C 117.027,333.906 116.027,334.573 114.5,334.5C 114.973,333.094 115.973,332.427 117.5,332.5 Z"/></g>
<g><path style="opacity:0.11" fill="#2e2e2e" d="M 393.5,332.5 C 395.027,332.427 396.027,333.094 396.5,334.5C 394.973,334.573 393.973,333.906 393.5,332.5 Z"/></g>
<g><path style="opacity:0.945" fill="#6f6f6f" d="M 113.5,335.5 C 113.027,336.906 112.027,337.573 110.5,337.5C 110.973,336.094 111.973,335.427 113.5,335.5 Z"/></g>
<g><path style="opacity:0.682" fill="#3f3f3f" d="M 110.5,337.5 C 109.738,339.262 108.404,340.262 106.5,340.5C 107.262,338.738 108.596,337.738 110.5,337.5 Z"/></g>
<g><path style="opacity:0.063" fill="#2e2e2e" d="M 400.5,337.5 C 402.027,337.427 403.027,338.094 403.5,339.5C 401.973,339.573 400.973,338.906 400.5,337.5 Z"/></g>
<g><path style="opacity:0.694" fill="#2d2d2d" d="M 105.5,341.5 C 105.027,342.906 104.027,343.573 102.5,343.5C 102.973,342.094 103.973,341.427 105.5,341.5 Z"/></g>
<g><path style="opacity:0.067" fill="#262626" d="M 405.5,341.5 C 407.027,341.427 408.027,342.094 408.5,343.5C 406.973,343.573 405.973,342.906 405.5,341.5 Z"/></g>
<g><path style="opacity:0.361" fill="#323232" d="M 411.5,346.5 C 413.749,347.08 415.415,348.413 416.5,350.5C 414.251,349.92 412.585,348.587 411.5,346.5 Z"/></g>
<g><path style="opacity:0.718" fill="#3c3c3c" d="M 99.5,346.5 C 98.4154,348.587 96.7488,349.92 94.5,350.5C 95.5846,348.413 97.2512,347.08 99.5,346.5 Z"/></g>
<g><path style="opacity:0.548" fill="#3d3d3d" d="M 83.5,361.5 C 82.5806,364.089 80.914,366.089 78.5,367.5C 79.4194,364.911 81.086,362.911 83.5,361.5 Z"/></g>
<g><path style="opacity:0.855" fill="#414141" d="M 428.5,362.5 C 430.587,363.585 431.92,365.251 432.5,367.5C 430.413,366.415 429.08,364.749 428.5,362.5 Z"/></g>
<g><path style="opacity:0.352" fill="#333333" d="M 435.5,370.5 C 436.906,370.973 437.573,371.973 437.5,373.5C 436.094,373.027 435.427,372.027 435.5,370.5 Z"/></g>
<g><path style="opacity:0.448" fill="#4b4b4b" d="M 76.5,369.5 C 76.2624,371.404 75.2624,372.738 73.5,373.5C 73.7376,371.596 74.7376,370.262 76.5,369.5 Z"/></g>
<g><path style="opacity:0.639" fill="#484848" d="M 72.5,374.5 C 72.573,376.027 71.9063,377.027 70.5,377.5C 70.427,375.973 71.0937,374.973 72.5,374.5 Z"/></g>
<g><path style="opacity:0.655" fill="#525252" d="M 438.5,374.5 C 439.906,374.973 440.573,375.973 440.5,377.5C 439.094,377.027 438.427,376.027 438.5,374.5 Z"/></g>
<g><path style="opacity:0.455" fill="#2b2b2b" d="M 66.5,382.5 C 66.573,384.027 65.9063,385.027 64.5,385.5C 64.427,383.973 65.0937,382.973 66.5,382.5 Z"/></g>
<g><path style="opacity:0.439" fill="#282828" d="M 444.5,382.5 C 445.906,382.973 446.573,383.973 446.5,385.5C 445.094,385.027 444.427,384.027 444.5,382.5 Z"/></g>
<g><path style="opacity:0.522" fill="#343434" d="M 64.5,385.5 C 64.573,387.027 63.9063,388.027 62.5,388.5C 62.427,386.973 63.0937,385.973 64.5,385.5 Z"/></g>
<g><path style="opacity:0.514" fill="#3b3b3b" d="M 446.5,385.5 C 447.906,385.973 448.573,386.973 448.5,388.5C 447.094,388.027 446.427,387.027 446.5,385.5 Z"/></g>
<g><path style="opacity:0.412" fill="#292929" d="M 62.5,388.5 C 62.573,390.027 61.9063,391.027 60.5,391.5C 60.427,389.973 61.0937,388.973 62.5,388.5 Z"/></g>
<g><path style="opacity:0.4" fill="#282828" d="M 448.5,388.5 C 449.906,388.973 450.573,389.973 450.5,391.5C 449.094,391.027 448.427,390.027 448.5,388.5 Z"/></g>
<g><path style="opacity:0.773" fill="#282828" d="M 56.5,398.5 C 56.573,400.027 55.9063,401.027 54.5,401.5C 54.427,399.973 55.0937,398.973 56.5,398.5 Z"/></g>
<g><path style="opacity:0.337" fill="#292929" d="M 454.5,398.5 C 455.906,398.973 456.573,399.973 456.5,401.5C 455.094,401.027 454.427,400.027 454.5,398.5 Z"/></g>
<g><path style="opacity:0.008" fill="#1d1d1d" d="M 33.5,505.5 C 34.8333,506.167 35.8333,507.167 36.5,508.5C 34.5,508.5 33.5,507.5 33.5,505.5 Z"/></g>
<g><path style="opacity:0.008" fill="#181818" d="M 477.5,505.5 C 477.5,507.5 476.5,508.5 474.5,508.5C 475.167,507.167 476.167,506.167 477.5,505.5 Z"/></g>
</svg>
